# xmcd
#
# Track frame offsets: 
#        150
#        28247
#        54800
#        67620
#        97230
#        110127
#        130877
#        142985
#        162452
#
# Disc length: 2427 seconds
#
# Revision: 2
# Processed by: cddbd v1.5.2PL0 Copyright (c) Steve Scherf et al.
# Submitted via: ExactAudioCopy v0.95b4
#
DISCID=7b097909
DTITLE=John Schwab and Mike Nugen - Ain't 'Live' Funny
DYEAR=1994
DGENRE=Country
TTITLE0=Ain't Life Funny (Live)
TTITLE1=Be A Friend Of Mine (Live)
TTITLE2=Music Man (Live)
TTITLE3=Crack Of Dawn (Live)
TTITLE4=My Name Is Bert (Live)
TTITLE5=There's Only One Of Us Now (Live)
TTITLE6=Bend Over Johnny (Live)
TTITLE7=Little Bits and Pieces (Live)
TTITLE8=Rocky Top (Live)
EXTD=
EXTT0=
EXTT1=
EXTT2=
EXTT3=
EXTT4=
EXTT5=
EXTT6=
EXTT7=
EXTT8=
PLAYORDER=
